<?xml version="1.0" standalone="no"?>
<!DOCTYPE svg PUBLIC "-//W3C//DTD SVG 20010904//EN"
 "http://www.w3.org/TR/2001/REC-SVG-20010904/DTD/svg10.dtd">
<svg version="1.0" xmlns="http://www.w3.org/2000/svg"
 width="1280.000000pt" height="1136.000000pt" viewBox="0 0 1280.000000 1136.000000"
 preserveAspectRatio="xMidYMid meet">
<metadata>
Created by potrace 1.15, written by Peter Selinger 2001-2017
</metadata>
<g transform="translate(0.000000,1136.000000) scale(0.100000,-0.100000)"
fill="#000000" stroke="none">
<path d="M7918 11350 c-98 -9 -278 -42 -354 -65 l-51 -15 1 -92 c0 -51 -3
-163 -8 -248 -8 -168 -12 -147 59 -400 45 -161 -18 -308 -153 -361 -55 -22
-73 -23 -482 -29 -364 -6 -445 -10 -568 -29 -389 -59 -766 -163 -1133 -311
-162 -66 -490 -230 -643 -322 -222 -134 -774 -555 -899 -686 l-57 -61 6 -83 6
-83 -74 -105 c-41 -58 -109 -154 -152 -215 -43 -60 -107 -168 -142 -240 -87
-177 -111 -274 -124 -512 -7 -125 -16 -195 -25 -214 -22 -42 -19 -86 8 -103
12 -8 53 -21 92 -28 67 -13 72 -15 160 -98 186 -177 357 -331 546 -493 l195
-167 52 -178 c88 -297 240 -825 247 -860 6 -30 4 -33 -29 -47 -38 -16 -44 -36
-27 -95 6 -22 12 -25 51 -25 l45 0 23 -70 c12 -38 25 -89 29 -111 l5 -41 -143
-159 c-161 -179 -445 -471 -472 -485 -13 -8 -27 -1 -65 34 -26 25 -63 52 -82
62 -19 10 -56 33 -82 52 -25 18 -61 39 -80 45 -18 6 -55 26 -83 45 -27 18 -54
33 -60 33 -5 0 -48 18 -95 39 -165 76 -516 171 -655 177 -33 2 -130 7 -215 12
-118 7 -178 6 -250 -4 -52 -8 -117 -14 -145 -14 -27 0 -86 -9 -130 -20 -44
-11 -94 -20 -111 -20 -17 0 -53 -12 -80 -26 -27 -15 -76 -30 -109 -34 -39 -4
-75 -16 -100 -33 -22 -14 -59 -30 -82 -35 -24 -6 -65 -24 -91 -41 -27 -17 -55
-31 -63 -31 -19 0 -216 -116 -249 -146 -14 -12 -43 -33 -65 -46 -95 -55 -343
-280 -381 -346 -10 -17 -24 -32 -30 -32 -13 0 -60 -53 -107 -121 -18 -26 -45
-64 -60 -85 -57 -79 -114 -170 -124 -200 -6 -18 -27 -55 -47 -84 -20 -29 -36
-58 -36 -65 0 -7 -16 -46 -35 -86 -19 -41 -35 -85 -35 -100 0 -14 -13 -50 -29
-80 -15 -30 -31 -77 -35 -105 -3 -28 -15 -74 -25 -104 -12 -33 -17 -67 -14
-91 4 -26 -1 -54 -15 -87 -17 -40 -23 -84 -31 -251 -6 -112 -9 -207 -6 -211 3
-4 11 -81 19 -171 9 -101 23 -189 35 -228 12 -35 21 -78 21 -95 0 -17 9 -49
19 -71 10 -22 21 -58 25 -80 4 -22 23 -74 42 -116 19 -42 34 -81 34 -86 0 -10
93 -193 151 -300 19 -34 51 -83 72 -110 21 -26 52 -69 70 -94 47 -68 119 -159
140 -178 10 -9 71 -67 135 -130 64 -62 134 -125 156 -138 21 -14 63 -45 93
-69 29 -24 59 -44 66 -44 7 0 38 -21 71 -45 32 -24 75 -50 95 -56 20 -7 60
-29 90 -50 34 -25 65 -39 85 -39 16 0 47 -12 67 -26 20 -14 63 -32 95 -41 32
-8 71 -21 86 -29 16 -8 52 -19 81 -24 28 -5 81 -18 117 -29 251 -76 763 -83
1031 -15 30 8 69 14 85 14 16 0 54 12 83 26 30 14 75 28 100 31 26 3 64 16 86
29 22 12 65 30 96 38 31 9 71 28 90 41 18 14 52 30 74 36 22 6 54 21 70 34 17
12 53 34 81 48 28 14 65 37 81 51 16 14 52 40 80 58 119 78 221 172 426 388
80 86 240 320 278 407 10 24 24 43 31 43 7 0 51 4 98 10 47 5 222 18 390 30
484 33 628 53 744 104 169 75 317 230 382 398 14 38 35 73 45 79 44 23 247 42
474 43 127 1 238 6 248 10 21 10 47 57 47 86 0 12 -7 34 -15 49 -12 24 -12 31
-2 40 8 6 76 15 152 21 237 18 364 54 442 124 41 37 46 47 51 94 10 108 -15
128 -228 182 -172 43 -267 82 -372 152 -142 96 -408 363 -408 411 0 21 105
153 708 891 530 648 844 1036 924 1142 26 33 73 78 105 100 32 21 95 67 141
102 46 34 87 62 92 62 5 0 17 -24 28 -52 77 -212 45 -184 250 -229 50 -10 55
-15 80 -61 15 -28 49 -85 76 -127 80 -124 197 -408 183 -445 -3 -8 -30 -27
-59 -42 -29 -14 -72 -42 -95 -61 -23 -18 -55 -40 -70 -48 -64 -33 -327 -271
-361 -326 -13 -21 -39 -47 -57 -58 -19 -11 -43 -38 -56 -63 -11 -24 -36 -59
-54 -78 -39 -41 -124 -172 -162 -250 -14 -30 -41 -77 -60 -104 -18 -26 -33
-57 -33 -67 0 -11 -13 -45 -29 -77 -15 -31 -31 -75 -35 -97 -4 -22 -18 -58
-31 -81 -13 -23 -28 -68 -34 -100 -5 -32 -17 -79 -25 -103 -9 -24 -16 -66 -16
-93 0 -27 -9 -74 -19 -106 -39 -118 -27 -676 18 -822 11 -36 23 -85 27 -110 4
-25 15 -63 25 -85 10 -22 19 -51 19 -65 0 -14 12 -52 26 -85 14 -33 33 -78 41
-100 22 -60 103 -225 134 -270 15 -22 34 -57 42 -77 8 -20 31 -53 50 -74 19
-22 42 -55 52 -74 30 -59 251 -304 340 -376 30 -25 55 -49 55 -53 0 -4 30 -29
68 -55 37 -25 85 -59 107 -75 89 -63 198 -131 209 -131 7 0 44 -20 82 -45 39
-25 81 -45 97 -45 15 0 40 -9 55 -20 36 -27 263 -103 382 -128 52 -11 120 -26
150 -32 102 -22 217 -33 340 -32 30 0 75 1 100 1 155 -1 289 14 441 47 37 8
80 14 95 14 16 0 53 11 83 25 29 14 72 28 95 31 22 4 61 17 86 29 25 12 69 30
99 40 30 10 75 31 100 46 25 16 52 29 60 29 19 0 200 106 256 150 22 17 61 45
86 63 129 89 315 259 342 313 9 18 32 41 52 53 20 11 44 35 53 52 9 17 35 54
57 81 22 28 54 74 70 103 17 30 37 62 46 72 10 10 30 45 47 78 16 33 43 87 60
120 71 139 90 183 97 225 4 25 20 69 36 99 16 30 29 68 29 86 0 17 9 58 20 90
11 32 20 82 20 110 0 29 7 68 15 88 9 22 19 103 26 219 10 182 10 202 -21 513
-4 44 -15 97 -24 117 -9 21 -16 52 -16 70 -1 18 -8 51 -16 73 -9 22 -24 69
-34 105 -33 122 -141 367 -200 455 -15 22 -36 58 -48 80 -11 22 -39 63 -61 90
-23 27 -41 56 -41 63 0 7 -22 37 -48 65 -27 29 -60 69 -74 90 -14 21 -40 49
-57 62 -18 12 -44 39 -59 58 -15 20 -55 59 -89 87 -35 28 -63 55 -63 60 0 5
-17 18 -37 31 -21 12 -65 42 -98 66 -105 76 -224 153 -237 153 -7 0 -47 21
-88 45 -41 25 -78 45 -83 45 -5 0 -36 14 -69 30 -33 17 -83 37 -112 44 -28 8
-71 23 -96 35 -25 11 -57 21 -73 21 -15 0 -60 11 -99 25 -39 14 -85 25 -102
25 -17 0 -47 5 -66 11 -70 22 -509 35 -624 19 -44 -7 -110 -15 -146 -20 -116
-14 -204 -32 -265 -52 -33 -10 -82 -26 -110 -33 -27 -8 -69 -25 -93 -37 l-43
-23 -20 23 c-10 13 -66 169 -124 345 -58 177 -109 328 -114 335 -5 8 -44 15
-112 19 -87 5 -108 9 -127 27 -29 26 -67 91 -76 129 -7 31 2 37 157 92 141 50
254 142 302 248 59 130 82 326 67 567 -5 85 -6 159 -2 164 5 5 69 -12 147 -39
112 -39 154 -49 225 -53 77 -4 92 -2 143 22 l56 26 87 -26 c108 -32 172 -29
209 9 21 20 27 39 34 103 4 44 8 105 8 137 1 58 0 61 -81 174 -45 63 -98 128
-118 144 -102 85 -222 109 -634 129 -250 12 -350 27 -470 71 -103 37 -374 169
-505 246 -129 75 -373 236 -388 254 -29 36 -198 499 -235 644 -29 118 -36 387
-13 527 24 146 31 159 96 182 30 10 125 52 213 93 188 88 244 101 358 84 43
-7 104 -21 135 -32 98 -34 158 -15 242 77 71 77 132 186 169 297 44 133 56
220 47 363 l-6 122 29 21 c17 12 63 35 104 51 42 17 85 42 101 60 29 33 32 56
27 259 -6 282 -166 524 -436 663 -114 59 -200 89 -349 124 -113 26 -135 28
-380 30 -143 1 -299 -2 -347 -6z m-771 -3313 c155 -306 232 -437 439 -752 164
-249 165 -250 241 -289 111 -55 291 -131 418 -176 159 -56 176 -71 95 -84 -23
-4 -54 -19 -75 -38 -41 -36 -42 -26 11 -209 38 -135 74 -313 74 -369 0 -48 41
-33 -478 -164 -606 -152 -804 -198 -813 -189 -5 5 -1 42 11 88 11 43 25 118
32 167 20 153 -21 289 -132 436 -81 107 -243 262 -388 370 -67 50 -256 180
-420 288 -360 239 -510 345 -582 414 l-55 52 28 21 c16 12 92 59 170 105 l141
82 76 0 c219 0 345 39 643 197 234 124 334 169 400 183 93 18 85 24 164 -133z
m2032 -1537 c96 -99 139 -152 163 -200 32 -62 33 -69 33 -180 0 -105 -2 -120
-28 -174 -76 -163 -223 -256 -403 -256 -89 0 -74 -21 -180 258 -41 108 -104
265 -139 347 -36 83 -65 155 -65 161 0 9 217 130 310 172 14 7 60 11 102 9
l77 -2 130 -135z m194 108 c24 -12 6 -44 -37 -64 -38 -19 -92 -8 -146 28 -40
27 -48 45 -23 51 27 7 185 -4 206 -15z m-4831 -560 c26 -18 125 -93 220 -166
95 -72 216 -164 268 -202 52 -39 127 -102 167 -141 70 -70 140 -179 128 -199
-9 -14 -143 -53 -363 -105 -206 -49 -214 -49 -226 1 -9 33 4 48 53 63 41 12
61 44 61 97 0 32 -10 35 -71 19 -74 -20 -96 -19 -110 6 -11 21 -189 633 -189
650 0 15 14 10 62 -23z m3549 -398 c10 -6 19 -15 19 -20 0 -15 -270 -348 -716
-885 -214 -259 -490 -594 -614 -745 -310 -381 -302 -372 -313 -361 -15 15 7
171 42 316 17 66 62 219 101 340 96 295 141 453 179 620 49 214 102 417 117
447 10 20 28 31 71 43 163 48 1022 249 1081 254 7 1 22 -4 33 -9z m-3487 -943
c16 -43 -26 -199 -77 -288 -47 -82 -198 -304 -245 -359 l-30 -35 -43 15 c-34
11 -51 26 -75 63 -18 27 -42 59 -54 72 l-23 24 29 38 c75 99 475 504 494 501
8 -2 19 -16 24 -31z m1246 -202 c17 -79 23 -435 11 -610 -9 -137 -60 -531 -78
-603 -3 -13 -39 -76 -81 -140 -41 -64 -105 -175 -142 -247 -70 -135 -80 -145
-135 -131 -24 6 -38 47 -90 256 -24 97 -167 625 -236 870 l-29 105 22 18 c58
47 654 495 691 519 22 16 45 24 49 20 4 -4 12 -30 18 -57z m-3282 -51 c57 -4
85 -11 89 -20 9 -23 -154 -1237 -226 -1682 -9 -61 -18 -74 -25 -41 -6 28 -31
654 -62 1540 -7 222 -7 224 85 215 31 -3 93 -8 139 -12z m8047 -3 l50 -7 -2
-69 c-3 -123 -217 -1662 -233 -1679 -11 -11 -18 74 -30 359 -31 764 -48 1316
-42 1367 2 23 10 38 21 41 20 5 167 -3 236 -12z m-8326 -1 c26 -14 28 -44 66
-1130 17 -492 18 -620 6 -620 -5 0 -13 19 -19 43 -39 154 -352 1628 -352 1657
0 23 10 26 107 39 165 23 171 23 192 11z m8028 -4 c10 -10 48 -969 59 -1473 5
-205 3 -285 -4 -278 -12 11 -28 81 -182 798 -178 834 -193 909 -178 924 25 24
285 49 305 29z m-7492 -26 c108 -24 185 -49 185 -60 0 -22 -99 -337 -352
-1115 -66 -203 -133 -412 -149 -462 -30 -94 -49 -118 -49 -63 0 73 230 1692
242 1708 13 16 16 15 123 -8z m8028 -4 c135 -30 167 -41 167 -60 0 -47 -522
-1650 -541 -1662 -5 -3 -9 5 -9 17 0 74 233 1699 246 1721 7 11 12 11 137 -16z
m-8893 -54 c33 -117 334 -1515 354 -1647 16 -100 -29 0 -312 700 -306 755
-355 886 -340 901 24 24 262 98 280 88 4 -3 12 -21 18 -42z m8064 -222 c102
-449 306 -1416 306 -1448 0 -50 -48 60 -370 858 -298 738 -306 760 -289 771
14 9 217 75 254 82 11 2 25 -1 32 -7 6 -6 36 -121 67 -256z m-6835 168 c136
-53 147 -63 131 -114 -19 -57 -116 -248 -341 -671 -246 -462 -376 -699 -401
-735 -27 -38 -42 -36 -34 5 10 52 460 1444 496 1535 5 12 17 22 26 22 9 0 64
-19 123 -42z m8043 -14 c60 -26 112 -53 115 -60 6 -18 -111 -248 -472 -929
-340 -641 -337 -635 -347 -635 -18 0 -30 -38 352 1142 77 241 147 452 154 470
7 18 16 41 20 52 9 25 40 18 178 -40z m-9548 -169 c108 -253 586 -1436 586
-1451 0 -27 -15 -13 -56 49 -112 171 -877 1401 -881 1417 -4 14 11 27 64 58
95 56 174 91 198 89 16 -2 34 -36 89 -162z m7961 116 c51 -103 635 -1540 635
-1566 0 -40 -3 -35 -360 535 -137 217 -323 517 -415 665 l-166 270 30 25 c39
33 207 120 232 120 12 0 27 -16 44 -49z m-6222 -47 c56 -29 207 -136 207 -147
0 -12 -20 -37 -240 -302 -165 -198 -512 -604 -597 -699 -24 -27 -46 -46 -49
-43 -9 8 568 1109 618 1180 23 32 20 31 61 11z m8053 -26 c94 -57 174 -116
174 -130 0 -19 -490 -659 -985 -1287 -170 -214 -153 -179 433 919 151 283 279
521 284 528 15 17 17 17 94 -30z m-10102 -160 c292 -451 857 -1360 850 -1368
-8 -7 -147 139 -460 485 -435 481 -714 797 -714 809 0 28 198 186 233 186 12
0 42 -38 91 -112z m7984 40 c103 -153 835 -1317 866 -1375 43 -84 21 -62 -374
372 -458 503 -790 878 -790 892 0 24 205 183 237 183 7 0 34 -33 61 -72z
m2389 -77 c26 -21 77 -69 113 -106 l65 -67 -61 -56 c-546 -505 -1132 -1037
-1212 -1100 -46 -37 -54 -28 -20 21 33 47 1007 1298 1031 1325 11 12 24 22 28
22 4 0 29 -18 56 -39z m-10412 -411 c374 -407 835 -921 847 -943 24 -45 4 -31
-687 507 -545 423 -695 545 -695 560 0 8 46 62 102 121 l101 106 40 -38 c21
-21 153 -162 292 -313z m8039 -30 c399 -435 826 -911 826 -921 0 -5 -3 -9 -8
-9 -11 0 -1215 933 -1352 1048 l-34 29 18 28 c11 16 57 69 104 117 l86 89 54
-53 c30 -29 167 -177 306 -328z m-5485 293 c20 -25 21 -27 4 -46 -39 -44 -650
-598 -778 -706 -199 -168 -121 -79 332 379 218 220 401 400 408 400 8 0 23
-12 34 -27z m988 -68 c15 -42 215 -796 240 -903 21 -89 17 -96 -60 -87 -212
25 -264 82 -333 367 -7 32 -27 81 -43 110 -17 29 -37 82 -45 117 -9 40 -24 74
-40 90 -14 15 -26 34 -26 43 0 44 241 313 275 307 11 -3 24 -21 32 -44z m7121
-32 c45 -55 142 -193 142 -204 0 -21 -1474 -949 -1487 -935 -3 3 2 16 13 27
42 48 1275 1158 1286 1159 3 0 24 -21 46 -47z m-8043 26 c4 -6 -2 -20 -13 -32
-30 -31 -131 -91 -140 -82 -9 9 115 125 134 125 7 0 16 -5 19 -11z m-3009
-237 c704 -533 1224 -944 1206 -950 -7 -2 -92 38 -189 89 -457 237 -1237 654
-1330 711 l-33 19 29 57 c34 67 128 202 140 202 5 0 85 -58 177 -128z m8027
-11 c320 -241 1075 -829 1165 -906 15 -13 24 -26 20 -30 -7 -7 -411 202 -1068
553 -381 203 -470 255 -470 272 0 16 38 88 72 138 30 44 87 112 94 112 2 0 86
-62 187 -139z m3217 -58 c25 -32 120 -220 120 -238 0 -14 -149 -78 -848 -362
-621 -252 -783 -316 -787 -311 -14 13 49 56 485 328 560 350 986 610 1000 610
5 0 18 -12 30 -27z m-11411 -200 c494 -256 1268 -666 1331 -705 25 -16 26 -31
3 -24 -188 52 -1615 517 -1642 535 -12 8 -13 16 -2 53 19 63 102 238 114 238
5 0 93 -43 196 -97z m8162 -78 c719 -373 1199 -631 1199 -646 0 -6 -10 -7 -22
-3 -348 107 -1607 513 -1630 525 -26 14 -23 30 27 148 54 128 71 155 94 146 9
-3 158 -80 332 -170z m-5522 76 c-17 -41 -31 -97 -35 -140 l-7 -71 -356 -221
c-195 -122 -364 -224 -376 -226 -25 -5 103 120 375 365 250 226 407 362 419
362 5 0 -4 -31 -20 -69z m8924 -118 c25 -50 68 -212 65 -245 -2 -26 -9 -33
-33 -40 -43 -11 -1204 -260 -1438 -308 -251 -51 -278 -51 -172 0 158 75 1515
619 1547 620 10 0 24 -12 31 -27z m-11693 -170 c158 -48 1388 -445 1433 -462
32 -12 36 -31 7 -31 -35 0 -1501 206 -1647 231 -34 6 -64 17 -67 24 -6 16 18
134 45 228 l20 68 32 -6 c18 -4 97 -27 177 -52z m8070 -19 c228 -70 799 -254
1159 -373 243 -80 299 -110 180 -97 -57 6 -1418 200 -1596 227 -71 11 -73 12
-73 40 0 32 24 151 46 227 18 64 -7 66 284 -24z m-5275 6 c49 -50 57 -62 45
-70 -30 -19 -231 -105 -505 -215 -283 -113 -325 -128 -325 -117 0 12 703 462
720 462 3 0 32 -27 65 -60z m224 -151 c57 -33 99 -64 95 -69 -14 -13 -534
-129 -937 -210 -141 -28 -173 -23 -92 14 101 48 799 326 815 326 9 0 62 -27
119 -61z m8765 4 c4 -9 14 -74 23 -145 14 -111 14 -131 2 -143 -11 -12 -122
-19 -544 -34 -1033 -39 -1196 -44 -1207 -33 -13 13 -6 15 347 91 724 157 1351
288 1362 284 6 -3 14 -12 17 -20z m-6960 -117 c-1 -56 -19 -76 -70 -76 -18 0
-36 -4 -39 -10 -3 -5 -14 -10 -23 -10 -10 0 -34 -11 -54 -25 -20 -14 -44 -25
-52 -25 -17 0 -131 -112 -169 -167 -36 -53 -77 -211 -77 -300 0 -113 17 -94
22 25 4 100 7 113 47 202 36 80 54 105 110 158 36 35 86 73 111 83 25 11 59
27 75 35 19 10 48 14 80 12 48 -3 49 -4 61 -45 15 -50 9 -58 -56 -68 -25 -4
-59 -16 -76 -26 -17 -10 -38 -19 -45 -19 -12 0 -29 -14 -79 -65 -29 -30 -70
-84 -70 -92 0 -6 -7 -24 -16 -42 -52 -105 -26 -296 53 -383 81 -89 115 -111
228 -145 71 -22 181 -10 263 28 34 16 62 33 62 38 0 4 12 14 26 21 14 8 32 27
41 43 20 39 113 83 143 67 25 -13 25 -21 -1 -73 -41 -78 -179 -194 -255 -213
-13 -3 -29 -13 -36 -22 -23 -28 50 -6 122 37 94 57 177 153 205 236 12 35 67
58 115 48 42 -8 39 -28 -17 -136 -47 -87 -117 -172 -177 -212 -16 -11 -41 -28
-55 -38 -14 -9 -42 -24 -61 -32 -19 -9 -44 -20 -55 -25 -87 -38 -114 -42 -237
-37 -68 3 -135 8 -149 12 -21 5 -27 3 -31 -13 -4 -14 -19 -23 -54 -31 -69 -15
-672 -66 -681 -58 -14 15 16 128 46 170 18 24 35 65 41 96 6 30 17 66 26 79 9
13 20 53 25 88 5 35 13 72 19 82 5 9 16 34 24 55 9 23 22 37 32 37 23 0 54
-29 54 -49 0 -19 42 -124 57 -143 6 -7 13 -22 17 -33 8 -28 131 -154 186 -192
53 -36 144 -83 161 -83 8 0 8 4 -1 15 -7 8 -20 15 -29 15 -9 0 -28 8 -41 17
-14 10 -37 25 -51 33 -59 34 -99 62 -99 70 0 5 -24 35 -52 67 -59 65 -66 75
-111 173 -59 126 -59 350 0 490 46 109 58 124 120 141 112 30 154 68 168 150
8 49 26 63 110 88 95 27 105 29 140 28 29 -2 30 -3 29 -51z m-1542 -7 c26 -10
127 -46 225 -80 168 -57 231 -85 220 -95 -11 -11 -1411 -59 -1504 -51 -150 12
-111 24 452 146 555 121 515 115 607 80z m-3042 -70 c552 -73 1212 -168 1219
-174 2 -3 2 -7 0 -10 -7 -7 -348 -23 -959 -45 -305 -11 -605 -22 -665 -26
-145 -8 -139 -14 -133 161 3 76 10 141 17 148 6 8 23 12 38 10 16 -1 233 -30
483 -64z m7910 16 c479 -65 1260 -174 1293 -181 43 -9 32 -22 -25 -28 -29 -3
-377 -17 -773 -31 -396 -14 -763 -28 -815 -31 -127 -8 -125 -11 -116 151 3 68
11 136 16 151 9 23 14 25 48 20 20 -3 188 -27 372 -51z m-4346 -177 c3 -13 6
-45 6 -73 0 -83 -7 -95 -51 -95 -80 0 -1137 125 -1148 135 -2 3 -2 7 1 10 8 9
742 39 1024 43 160 2 162 2 168 -20z m8013 -124 c-4 -96 -10 -151 -19 -161
-16 -20 -16 -20 -743 83 -751 106 -988 143 -998 153 -10 10 96 16 618 36 716
28 828 32 989 33 l159 2 -6 -146z m-7530 121 c3 -9 -1 -23 -9 -33 -8 -9 -27
-50 -43 -89 -40 -104 -58 -99 -53 15 2 56 8 95 17 105 17 22 79 23 88 2z m659
-26 c83 -46 89 -60 37 -95 -41 -27 -98 -36 -159 -25 -38 7 -56 18 -81 46 -26
30 -37 36 -57 31 -26 -6 -39 3 -28 21 14 22 126 59 190 62 13 1 57 -18 98 -40z
m-3492 -38 c8 -12 -7 -16 -319 -85 -675 -149 -1380 -295 -1388 -287 -10 10
-33 149 -40 239 -5 58 -3 64 16 72 24 10 624 34 1574 63 40 1 90 3 112 5 22 1
42 -2 45 -7z m8012 -4 c10 -10 -157 -48 -1110 -252 -453 -96 -591 -123 -597
-113 -15 25 -40 194 -37 253 l3 60 125 7 c226 12 1525 55 1583 52 15 0 30 -4
33 -7z m-4316 -43 c49 -45 55 -72 11 -49 -34 17 -73 63 -65 76 8 13 11 12 54
-27z m-510 13 c0 -7 -18 -30 -39 -51 -49 -48 -75 -39 -31 10 16 19 30 39 30
44 0 6 9 10 20 10 11 0 20 -6 20 -13z m682 -3 c4 -3 8 -23 8 -45 0 -38 -1 -39
-37 -39 -31 0 -45 7 -76 40 -21 22 -35 45 -31 51 6 11 117 4 136 -7z m4943
-13 c323 -43 1403 -192 1463 -202 l62 -11 0 -36 c0 -46 -47 -245 -64 -267 -11
-15 -18 -16 -47 -7 -233 73 -1566 506 -1623 528 -27 10 -6 25 27 19 18 -2 100
-14 182 -24z m-4779 -12 c19 -15 14 -59 -7 -72 -36 -23 -119 28 -119 74 0 20
3 21 56 16 30 -3 62 -11 70 -18z m-4016 5 c0 -8 -71 -38 -539 -229 -1065 -434
-1075 -437 -1089 -418 -21 29 -84 239 -80 269 4 32 -42 19 468 130 699 152
1177 251 1223 253 9 1 17 -1 17 -5z m8010 -2 c0 -4 -147 -68 -327 -142 -578
-236 -1286 -520 -1288 -518 -22 27 -95 243 -95 282 0 15 7 27 18 30 63 20
1310 287 1582 340 90 17 110 19 110 8z m-3781 -48 c119 -41 181 -70 181 -84 0
-6 -4 -10 -10 -10 -27 0 -232 32 -275 43 -44 12 -50 17 -56 45 -3 17 -4 34 -1
37 13 12 62 3 161 -31z m4686 -75 c176 -55 545 -176 820 -267 491 -164 500
-167 497 -192 -5 -36 -79 -211 -102 -240 l-19 -25 -133 68 c-477 242 -1386
722 -1408 743 -12 12 -12 14 5 14 11 0 164 -45 340 -101z m-8905 67 c-16 -15
-372 -240 -892 -565 -441 -275 -570 -352 -582 -348 -17 5 -140 253 -134 269 8
18 748 326 1393 579 204 80 243 92 215 65z m888 -67 c637 -200 1303 -417 1317
-430 20 -19 -64 -237 -105 -274 -21 -19 -4 -27 -570 268 -740 385 -940 493
-940 508 0 18 45 7 298 -72z m7132 76 c0 -10 -923 -593 -1329 -839 -138 -84
-144 -87 -163 -70 -21 20 -128 227 -128 250 0 7 17 21 38 30 403 174 1539 633
1570 634 6 0 12 -2 12 -5z m-70 -138 c-104 -100 -859 -783 -1075 -971 -60 -53
-115 -96 -122 -96 -24 0 -183 205 -183 235 0 15 202 148 710 467 596 374 764
477 770 471 3 -2 -42 -51 -100 -106z m834 -6 c550 -283 1286 -681 1293 -699
10 -24 -142 -252 -168 -252 -6 0 -47 28 -92 62 -380 288 -1188 915 -1252 972
-22 19 -34 35 -26 36 8 0 118 -53 245 -119z m-8830 20 c-173 -167 -1183 -1072
-1205 -1080 -25 -8 -189 194 -189 233 0 17 142 113 555 373 633 399 901 563
919 563 6 -1 -30 -40 -80 -89z m3174 73 c82 -57 74 -241 -12 -282 -47 -23 -71
-10 -84 49 -20 87 -9 222 19 240 21 13 52 11 77 -7z m-1608 -70 c639 -87 743
-103 759 -119 11 -11 9 -29 -13 -116 -14 -56 -30 -107 -36 -113 -12 -12 12
-19 -747 230 -293 96 -535 179 -538 185 -8 12 -29 15 575 -67z m7333 -201
c466 -360 880 -686 957 -751 36 -31 67 -57 69 -59 15 -10 -182 -233 -206 -233
-14 0 -627 670 -1111 1215 -64 72 -82 101 -58 92 9 -4 166 -122 349 -264z
m-8034 156 c356 -184 1140 -606 1235 -665 17 -10 16 -14 -7 -60 -48 -95 -49
-95 -177 -103 l-115 -7 -419 325 c-230 179 -489 382 -575 451 -141 113 -185
160 -150 160 7 0 100 -46 208 -101z m-749 82 c0 -5 -197 -263 -438 -574 -573
-736 -621 -797 -635 -797 -15 0 -178 144 -208 183 l-22 28 34 36 c70 74 1252
1133 1264 1133 3 0 5 -4 5 -9z m8014 -3 c-15 -26 -893 -1155 -1006 -1295 -33
-40 -65 -73 -72 -73 -8 0 -62 47 -122 105 l-109 105 70 67 c95 92 1160 1052
1198 1081 34 24 52 29 41 10z m698 -350 c345 -376 673 -737 786 -866 82 -94
82 -91 -2 -158 -87 -70 -164 -117 -181 -110 -19 7 -80 101 -537 831 -405 648
-403 645 -390 645 5 0 151 -154 324 -342z m-755 130 c-253 -493 -688 -1302
-711 -1326 -8 -8 -23 -11 -37 -7 -36 9 -223 138 -227 155 -3 17 88 138 482
645 405 521 576 735 588 735 5 0 -37 -91 -95 -202z m-47 -445 c-302 -943 -334
-1037 -354 -1041 -23 -5 -222 76 -253 103 l-25 21 71 142 c140 279 713 1364
735 1391 32 40 2 -67 -174 -616z m573 436 c316 -495 787 -1263 787 -1283 0 -7
-6 -19 -14 -25 -25 -21 -228 -121 -245 -121 -9 0 -21 12 -27 28 -6 15 -71 171
-144 347 -295 712 -500 1220 -500 1238 0 29 38 -20 143 -184z m-151 122 c85
-196 602 -1484 622 -1549 7 -19 2 -25 -36 -41 -60 -27 -237 -74 -253 -67 -16
6 -20 25 -179 766 -165 772 -196 919 -196 936 0 26 21 3 42 -45z m-182 41 c0
-68 -224 -1695 -236 -1714 -8 -13 -82 -9 -148 7 -121 31 -156 46 -156 65 0 31
113 389 386 1227 74 226 134 414 134 417 0 3 5 6 10 6 6 0 10 -3 10 -8z m64
-169 c38 -913 58 -1565 47 -1576 -14 -14 -288 -4 -303 11 -9 9 -9 33 1 114 31
256 218 1572 227 1601 13 42 21 -3 28 -150z m46 162 c0 -3 18 -87 41 -188 45
-201 192 -883 269 -1244 28 -128 50 -241 50 -252 0 -10 -8 -22 -17 -25 -25
-10 -210 -36 -255 -36 -34 0 -38 3 -42 32 -10 57 -48 979 -62 1471 -5 183 -4
247 5 247 6 0 11 -2 11 -5z m-8255 -26 c-15 -45 -586 -1127 -713 -1349 -52
-90 -63 -105 -84 -103 -29 2 -158 78 -211 125 l-38 33 142 185 c230 299 758
979 821 1058 58 71 97 95 83 51z m891 -232 c189 -144 614 -481 669 -530 28
-25 47 -48 43 -52 -8 -8 -187 -24 -278 -24 l-65 0 -219 245 c-121 134 -228
257 -238 272 -10 15 -18 43 -18 62 -1 19 -7 46 -15 60 -15 27 -20 60 -7 60 4
0 61 -42 128 -93z m-925 -28 c-7 -76 -24 -148 -60 -264 -128 -417 -338 -1047
-355 -1071 -13 -17 -16 -17 -77 6 -124 45 -209 88 -209 106 0 26 346 692 618
1189 68 126 82 148 89 142 2 -3 -1 -51 -6 -108z m3122 20 c71 -64 77 -65 101
-18 17 34 53 49 121 49 71 0 120 -22 152 -69 27 -39 23 -53 -23 -75 -126 -60
-316 -5 -415 121 -26 32 -30 53 -11 53 4 0 38 -28 75 -61z m526 19 c-12 -25
-98 -108 -111 -108 -22 0 -3 32 46 79 59 55 85 67 65 29z m-3196 -60 c12 -13
31 -49 42 -81 l20 -59 -33 -30 c-19 -16 -41 -28 -50 -26 -18 3 -37 65 -48 155
-6 44 -4 52 12 56 32 8 34 8 57 -15z m-99 -48 c8 -28 20 -78 27 -111 11 -56
10 -61 -9 -82 -11 -12 -35 -30 -51 -40 l-31 -18 -10 26 c-11 29 -14 258 -3
268 3 4 19 7 34 7 25 0 30 -5 43 -50z m-127 32 c8 -5 13 -53 15 -147 l3 -139
-36 -18 c-20 -9 -49 -20 -64 -24 l-28 -7 6 79 c9 125 28 234 44 250 16 15 41
18 60 6z m-107 -51 c0 -68 -37 -281 -53 -299 -14 -17 -110 -62 -132 -62 -8 0
-15 7 -15 15 0 21 88 301 110 353 17 38 22 42 54 42 l36 0 0 -49z m427 -17
c-9 -9 -28 6 -21 18 4 6 10 6 17 -1 6 -6 8 -13 4 -17z m380 -102 c190 -205
318 -352 318 -365 0 -14 -71 -25 -176 -26 l-76 -1 -80 123 c-99 151 -183 284
-190 304 -5 14 61 93 78 93 4 0 61 -58 126 -128z m-160 -89 c109 -169 175
-284 169 -298 -9 -25 -169 -35 -199 -12 -17 13 -150 332 -145 347 4 13 81 69
95 70 6 0 42 -48 80 -107z m-186 -24 c29 -58 109 -264 109 -283 0 -17 -16 -22
-101 -30 -37 -4 -61 -2 -71 7 -13 10 -37 96 -73 263 -5 23 12 42 60 67 44 24
53 21 76 -24z m-131 -185 c17 -87 20 -118 11 -127 -14 -14 -149 -23 -161 -11
-5 5 -11 54 -15 109 l-7 100 63 38 c56 32 65 35 75 22 6 -8 22 -67 34 -131z
m-200 -50 c0 -78 -3 -94 -16 -94 -13 0 -14 14 -10 98 3 53 5 98 5 100 1 2 6 0
11 -3 6 -3 10 -48 10 -101z m-288 -76 c18 -19 43 -41 56 -50 l22 -15 -50 -354
c-28 -195 -52 -360 -55 -366 -2 -8 -22 -13 -45 -13 -46 0 -238 46 -257 61 -9
8 -7 27 8 82 25 92 213 669 235 722 l16 40 19 -37 c10 -20 33 -51 51 -70z
m1935 37 c7 -19 -24 -55 -47 -55 -9 0 -27 11 -40 26 -21 21 -22 27 -10 34 25
16 90 12 97 -5z m-118 -43 l55 -49 -22 -34 c-11 -19 -60 -72 -107 -119 l-87
-85 -90 95 c-146 153 -184 200 -168 210 7 5 61 11 119 15 58 3 115 7 126 9 11
2 43 4 70 5 46 1 54 -3 104 -47z m-349 -123 c69 -78 132 -152 140 -166 14 -24
13 -26 -30 -65 -66 -59 -181 -138 -201 -138 -29 0 -322 470 -304 488 9 10 98
19 190 20 l80 2 125 -141z m-363 -16 c50 -76 123 -192 162 -257 85 -142 88
-131 -63 -205 -140 -69 -141 -69 -166 -29 -32 54 -242 588 -236 603 5 15 43
21 147 23 l66 2 90 -137z m-220 -193 c68 -168 123 -317 123 -331 0 -23 -7 -29
-61 -49 -79 -28 -227 -65 -235 -57 -11 10 -154 681 -154 721 0 19 27 24 125
22 l79 -1 123 -305z m-369 283 c14 -27 78 -302 123 -526 29 -149 37 -202 28
-208 -19 -11 -168 -32 -239 -33 l-65 -1 -7 65 c-12 121 -30 692 -21 700 11 11
47 17 115 19 45 1 59 -3 66 -16z m-232 -1 c6 -4 14 -43 18 -87 11 -137 27
-648 20 -668 -6 -18 -14 -19 -143 -15 -75 3 -144 9 -155 13 -17 7 -18 16 -12
84 8 83 72 540 84 599 9 38 11 39 68 27 26 -6 36 -2 63 24 33 33 39 35 57 23z"/>
<path d="M5020 1901 c0 -11 5 -23 10 -26 6 -3 10 -15 10 -26 0 -19 38 -65 46
-56 6 5 -53 127 -61 127 -3 0 -5 -9 -5 -19z"/>
<path d="M5100 1752 c0 -5 21 -28 48 -51 26 -23 56 -50 67 -60 41 -38 144 -80
220 -89 75 -9 169 -6 191 6 15 9 -8 11 -99 12 -94 0 -125 4 -155 19 -20 10
-49 21 -63 24 -33 8 -128 73 -152 104 -21 26 -57 48 -57 35z"/>
</g>
</svg>
